<svg xmlns="http://www.w3.org/2000/svg" viewBox="0 0 172.12 227.68"><defs><style>.cls-1{fill:#1d1d1b;}.cls-2{fill:#009ee2;}</style></defs><title>Recurso 1</title><g id="Capa_2" data-name="Capa 2"><g id="Capa_1-2" data-name="Capa 1"><path class="cls-1" d="M21.84,216.44V184.21h5.81a27.41,27.41,0,0,1,4.53.34,14.29,14.29,0,0,1,3.88,1.24,14.69,14.69,0,0,1,3.56,2.48,15.57,15.57,0,0,1,3.8,5.46,17,17,0,0,1,1.32,6.64,16.51,16.51,0,0,1-1.28,6.43,15.85,15.85,0,0,1-3.68,5.36,15,15,0,0,1-2.69,2.09,13.51,13.51,0,0,1-2.89,1.32,17.19,17.19,0,0,1-3.07.67,28.08,28.08,0,0,1-3.5.2Zm2-1.92h3.73a19.15,19.15,0,0,0,6-.86,12.35,12.35,0,0,0,4.82-3,14.53,14.53,0,0,0,3.17-4.72,14.25,14.25,0,0,0,1.11-5.54,14.67,14.67,0,0,0-1.21-5.89A14,14,0,0,0,38,189.63a12.44,12.44,0,0,0-4.66-2.73,19.5,19.5,0,0,0-5.77-.77H23.89Z"/><path class="cls-1" d="M66.69,206.73H49.54a9.07,9.07,0,0,0,1,4.4,7.23,7.23,0,0,0,2.84,2.92,8.08,8.08,0,0,0,4,1,7.13,7.13,0,0,0,4.08-1.23,8.82,8.82,0,0,0,2.9-3.26l1.62.94a9.62,9.62,0,0,1-8.84,5.34,9.12,9.12,0,0,1-5-1.4,9.34,9.34,0,0,1-3.37-3.77,11.41,11.41,0,0,1-1.18-5.18,11.1,11.1,0,0,1,1.2-5.12,9.44,9.44,0,0,1,3.39-3.75,9.2,9.2,0,0,1,13.34,3.82A12.09,12.09,0,0,1,66.69,206.73Zm-17.15-1.8H64.77a8,8,0,0,0-1.26-3.4A7.8,7.8,0,0,0,60.84,199a7.05,7.05,0,0,0-3.6-.94,7.52,7.52,0,0,0-3.67.93,7.93,7.93,0,0,0-2.79,2.52A7.15,7.15,0,0,0,49.54,204.93Z"/><path class="cls-1" d="M81.31,199.42l-1.67.86a3.72,3.72,0,0,0-3.47-2.22,3.45,3.45,0,0,0-2.33.91,2.79,2.79,0,0,0-1,2.17,2.37,2.37,0,0,0,1,2.19,22.15,22.15,0,0,0,3.53,1.58,11.17,11.17,0,0,1,3.78,2.16,4.81,4.81,0,0,1,1.27,3.64,6.08,6.08,0,0,1-.85,3.17,5.85,5.85,0,0,1-2.31,2.2,6.71,6.71,0,0,1-3.21.78,6.94,6.94,0,0,1-4.34-1.41,6.71,6.71,0,0,1-2.45-3.8l1.88-.59q1.25,4,4.92,4a4.4,4.4,0,0,0,4.45-4.45,3,3,0,0,0-1-2.44,9.69,9.69,0,0,0-2.87-1.45,25,25,0,0,1-3-1.25,6,6,0,0,1-2-1.65,4,4,0,0,1-.81-2.56,4.59,4.59,0,0,1,1.59-3.59,5.51,5.51,0,0,1,3.8-1.41,5.35,5.35,0,0,1,2,.41,6.15,6.15,0,0,1,1.82,1.13A5,5,0,0,1,81.31,199.42Z"/><path class="cls-1" d="M89.09,188.35a1.68,1.68,0,0,1,1.25.52,1.71,1.71,0,0,1,.51,1.24,1.68,1.68,0,0,1-.51,1.25,1.71,1.71,0,0,1-1.24.5,1.75,1.75,0,0,1-1.75-1.75,1.72,1.72,0,0,1,.51-1.23A1.66,1.66,0,0,1,89.09,188.35Zm.94,8.34v19.75H88.11V196.69Z"/><path class="cls-1" d="M115,196.69V215.5a26.74,26.74,0,0,1-.35,4.74,9,9,0,0,1-1.61,3.64,8.9,8.9,0,0,1-3.42,2.82,10.28,10.28,0,0,1-4.45,1,11.37,11.37,0,0,1-4.78-1,8.38,8.38,0,0,1-3.49-2.91,8.8,8.8,0,0,1-1.48-4.56h1.92a6.56,6.56,0,0,0,1.17,3.51,7.1,7.1,0,0,0,2.78,2.34,8.45,8.45,0,0,0,3.72.82,9,9,0,0,0,3.62-.73,6.24,6.24,0,0,0,2.7-2.21,8.92,8.92,0,0,0,1.41-3.34,22,22,0,0,0,.34-4.14V213H113a9.82,9.82,0,0,1-7.7,3.85,8.93,8.93,0,0,1-5-1.42,9.62,9.62,0,0,1-3.39-3.8,11.19,11.19,0,0,1-1.21-5.12A10.82,10.82,0,0,1,97,201.36a9.51,9.51,0,0,1,8.58-5.1A8.89,8.89,0,0,1,113,200.1h.08v-3.41Zm-9.71,1.37a6.9,6.9,0,0,0-3.06.68,7.55,7.55,0,0,0-2.43,1.87,8.75,8.75,0,0,0-1.59,2.71,8.89,8.89,0,0,0-.56,3.11,9.66,9.66,0,0,0,1,4.27,7.87,7.87,0,0,0,2.73,3.18,7.17,7.17,0,0,0,4.09,1.18,7.31,7.31,0,0,0,4.2-1.2,7.48,7.48,0,0,0,2.68-3.22,10.74,10.74,0,0,0,.9-4.43,8.78,8.78,0,0,0-1-4.14,7.3,7.3,0,0,0-2.79-2.95A8,8,0,0,0,105.33,198.06Z"/><path class="cls-1" d="M123.54,196.69v3.08h.08a6.44,6.44,0,0,1,2.41-2.58,6.55,6.55,0,0,1,3.45-.93,6.86,6.86,0,0,1,3.9,1,5.16,5.16,0,0,1,2,2.78,14.82,14.82,0,0,1,.58,4.49v11.93h-1.93V204.51a15.75,15.75,0,0,0-.31-3.43,3.78,3.78,0,0,0-1.36-2.2,4.88,4.88,0,0,0-3.07-.82,5,5,0,0,0-3.59,1.24,6.24,6.24,0,0,0-1.73,3.15,18.59,18.59,0,0,0-.45,4.24v9.75h-1.93V196.69Z"/><path class="cls-1" d="M152.53,199.42l-1.67.86a3.72,3.72,0,0,0-3.47-2.22,3.45,3.45,0,0,0-2.33.91,2.79,2.79,0,0,0-1,2.17,2.37,2.37,0,0,0,1,2.19,22.14,22.14,0,0,0,3.53,1.58,11.18,11.18,0,0,1,3.78,2.16,4.81,4.81,0,0,1,1.27,3.64,6.08,6.08,0,0,1-.85,3.17,5.85,5.85,0,0,1-2.31,2.2,6.71,6.71,0,0,1-3.21.78,6.94,6.94,0,0,1-4.34-1.41,6.71,6.71,0,0,1-2.45-3.8l1.88-.59q1.25,4,4.92,4a4.4,4.4,0,0,0,4.45-4.45,3,3,0,0,0-1-2.44,9.68,9.68,0,0,0-2.87-1.45,24.92,24.92,0,0,1-3-1.25,6,6,0,0,1-2-1.65,4,4,0,0,1-.81-2.56,4.59,4.59,0,0,1,1.59-3.59,5.51,5.51,0,0,1,3.8-1.41,5.35,5.35,0,0,1,2,.41,6.15,6.15,0,0,1,1.82,1.13A5,5,0,0,1,152.53,199.42Z"/><circle class="cls-2" cx="167.59" cy="86.06" r="3.91"/><circle class="cls-2" cx="165.62" cy="68.71" r="3.91"/><circle class="cls-2" cx="159.93" cy="52.07" r="3.91"/><circle class="cls-2" cx="150.8" cy="36.85" r="3.91"/><circle class="cls-2" cx="138.55" cy="23.78" r="3.91"/><circle class="cls-2" cx="123.48" cy="13.56" r="3.91"/><circle class="cls-2" cx="105.88" cy="6.9" r="3.91"/><circle class="cls-2" cx="86.06" cy="4.53" r="3.91"/><circle class="cls-2" cx="4.53" cy="86.06" r="3.91"/><circle class="cls-2" cx="6.47" cy="103.41" r="3.91"/><circle class="cls-2" cx="12.1" cy="120.05" r="3.91"/><circle class="cls-2" cx="21.16" cy="135.26" r="3.91"/><circle class="cls-2" cx="33.35" cy="148.34" r="3.91"/><circle class="cls-2" cx="48.42" cy="158.56" r="3.91"/><circle class="cls-2" cx="66.08" cy="165.21" r="3.91"/><circle class="cls-2" cx="86.06" cy="167.59" r="3.91"/><path class="cls-1" d="M4.53,90.58A4.53,4.53,0,0,1,0,86.06,86,86,0,0,1,86.06,0a4.53,4.53,0,1,1,0,9.05,77,77,0,0,0-77,77A4.53,4.53,0,0,1,4.53,90.58Z"/><path class="cls-1" d="M86.06,172.12a4.53,4.53,0,1,1,0-9.05,77,77,0,0,0,77-77,4.53,4.53,0,0,1,9.05,0,86,86,0,0,1-86.06,86.06Z"/><path class="cls-1" d="M55.42,117.68A27.22,27.22,0,0,1,28.23,90.5a3.88,3.88,0,0,1,7.75,0,19.43,19.43,0,1,0,38.87,0V30.13a3.88,3.88,0,1,1,7.75,0V90.5A27.22,27.22,0,0,1,55.42,117.68Z"/><path class="cls-1" d="M95.47,144.42a3.88,3.88,0,0,1-3.88-3.88V62.17a3.88,3.88,0,0,1,3.88-3.88h21.46a26.89,26.89,0,1,1,0,53.79H99.34v28.46A3.88,3.88,0,0,1,95.47,144.42Zm3.88-40.09h17.58a19.14,19.14,0,1,0,0-38.28H99.34Z"/></g></g></svg>